/* XPM */
static char *_f9e4f1ea70d4d60fde82e3e50b8361aYAotohp0GnJiaROL[] = {
/* columns rows colors chars-per-pixel */
"25 25 30 1 ",
"  c None",
". c #2B2399",
"X c #2B249A",
"o c #2A249B",
"O c #2C259A",
"+ c #2B249C",
"@ c #2B249D",
"# c #2B249E",
"$ c #2B249F",
"% c #2B24A0",
"& c #2B25A0",
"* c #2B25A1",
"= c #2C25AC",
"- c #2C25AD",
"; c #2C25AE",
": c #2C25AF",
"> c #2C25B4",
", c #2C26B4",
"< c #2D26B4",
"1 c #504AAE",
"2 c #534DBD",
"3 c #5550C2",
"4 c #5650C2",
"5 c #5651C3",
"6 c #5751C3",
"7 c #5652C3",
"8 c #5852C4",
"9 c #5953C4",
"0 c #5954C4",
"q c #5A54C4",
/* pixels */
"            1            ",
"            <            ",
"           q<.           ",
"           <<<           ",
"          q<<<X          ",
"          <<<<<          ",
"         9<<<<<X         ",
"         <<<<<<<         ",
"        9<<<<<<<$        ",
"        <<<<<<<<<        ",
"       9<<<<<<<<<$       ",
"       <<<<<<<<<<<       ",
"      9<<<<>><<<<<$      ",
"      <<<<<>><<<<<<      ",
"     7<<<<>><<<<<<<$     ",
"     <<<<<<<<<<<<<<<     ",
"    7<<<>>><<<>>><<<$    ",
"    <<<<<<><<<<<<<<<>    ",
"   7<<<<<<<<<<<<<<<<<%   ",
"   <<<<<<<<<<<<<<<<<<<   ",
"  4<<<<<<<<<><<<<<<<<<%  ",
"  <<<<<<<<<<><<<<<<<<<<  ",
" 7<<<<<<<<<<<<<<<<<<<<<% ",
" <<<<<<<<<<<<<<<<<<<<<<< ",
"2:::::::::::::::::::::::O"
};
